<?xml version="1.0" encoding="utf-8"?>
<!--Designed by Vexels.com - 2017 All Rights Reserved - https://vexels.com/terms-and-conditions/-->
<!DOCTYPE svg PUBLIC "-//W3C//DTD SVG 1.1//EN" "http://www.w3.org/Graphics/SVG/1.1/DTD/svg11.dtd">
<svg version="1.1" id="Layer_1" xmlns="http://www.w3.org/2000/svg" xmlns:xlink="http://www.w3.org/1999/xlink" x="0px" y="0px"
	 width="1200px" height="1200px" viewBox="0 0 1200 1200" enable-background="new 0 0 1200 1200" xml:space="preserve">
<g>
	<g>
		<path fill="#5EA7AC" d="M877.803,486.236c-5.494-12.316-9.258-25.686-10.803-39.85c-8.092-73.536,44.969-139.759,118.574-147.822
			c10.184-1.118,20.203-0.958,29.986,0.155l-81.834,90.751c-13.197,14.685-11.738,37.657,3.426,51.332l54.572,49.222
			c15.135,13.647,38.166,12.798,51.449-1.926l85.342-94.619c2.258,7.563,3.992,15.479,4.893,23.645
			c8.08,73.521-44.975,139.746-118.582,147.842c-26.939,2.949-52.885-2.363-75.371-13.865l-68.947,70.836
			c-13.535,14.459-36.178,15.118-50.609,1.571l-12.908-12.076c-14.357-13.551-15.088-36.218-1.539-50.646L877.803,486.236z"/>
	</g>
	<g>
		<path fill="#012B4F" d="M50,661.25l26.074,135.172c0,0,9.752,19.48,26.043,22.768l42.359,9.76c0,0,13.016-109.075,110.713-102.528
			c0,0,87.898-1.665,92.797,91.143c0,0,1.633,13.004,26.002,14.676l512.904,4.863c0,0,21.156-11.382,24.416-21.2
			c0,0,17.928-96.028,91.174-91.146c0,0,97.689-1.622,94.438,96.095c0,0,8.172,14.637,19.574,4.87l32.537-133.569
			c0,0,14.65-27.595-70.02-34.149c-84.713-6.534-195.371-11.378-195.371-11.378s-19.523-9.764-24.41-16.302L738.744,517.995
			c0,0-5.029-8.029-26.063-8.191c0,0-236.055-16.236-354.93-3.19c0,0-9.285,0.517-28.369,17.168L224.246,630.322
			c0,0-11.402,11.39-27.695,11.39C196.551,641.712,66.295,648.239,50,661.25z M580.279,610.97v-70.937
			c1.941-19.287,19.688-15.79,19.688-15.79l103.328,2.289c17.35,0,25.84,11.195,25.84,11.195l76.305,80.196
			c10,11.195-4.25,13.093-4.25,13.093H599.967C579.127,630.621,580.279,610.97,580.279,610.97z M327.391,615.634l58.975-80.983
			c0,0,7.295-11.195,23.516-11.948h128.77c0,0,13.473-1.498,12.738,11.172v84.05c0,0,0.373,12.316-16.209,13.093H337.023
			C337.023,631.017,316.18,629.119,327.391,615.634z"/>
		<path fill="#012B4F" d="M168.094,824.099c0,43.144,34.957,78.1,78.127,78.1c43.148,0,78.129-34.956,78.129-78.1
			c0-43.203-34.98-78.201-78.129-78.201C203.051,745.897,168.094,780.896,168.094,824.099z M208.777,824.099
			c0-20.699,16.756-37.514,37.443-37.514c20.703,0,37.434,16.814,37.434,37.514c0,20.668-16.73,37.436-37.434,37.436
			C225.533,861.534,208.777,844.767,208.777,824.099z"/>
		<path fill="#012B4F" d="M927.604,824.099c0,43.144,34.979,78.1,78.135,78.1c43.16,0,78.17-34.956,78.17-78.1
			c0-43.203-35.01-78.201-78.17-78.201C962.582,745.897,927.604,780.896,927.604,824.099z M968.299,824.099
			c0-20.699,16.791-37.514,37.439-37.514c20.691,0,37.436,16.814,37.436,37.514c0,20.668-16.744,37.436-37.436,37.436
			C985.09,861.534,968.299,844.767,968.299,824.099z"/>
	</g>
</g>
</svg>
